
<svg xmlns="http://www.w3.org/2000/svg" version="1.1" xmlns:xlink="http://www.w3.org/1999/xlink" preserveAspectRatio="none" x="0px" y="0px" width="120px" height="64px" viewBox="0 0 120 64">
<defs>
<g id="Layer0_0_FILL">
<path fill="#00FF00" stroke="none" d="
M 120 64
L 120 0 0 0 0 64 120 64
M 94.5 20
L 97.5 22.5 97.5 32 94.5 34.5 85.5 34.5 85.5 44 79.5 44 79.5 20.05 94.5 20
M 117.5 26
L 111.5 26 111.5 44 105.5 44 105.5 26 99.5 26 99.5 20 117.5 20 117.5 26
M 62.5 20.05
L 77.5 20 77.5 25 68.5 25 68.5 29.5 74.5 29.5 74.5 34.5 68.5 34.5 68.5 39 77.5 39 77.5 44 62.5 44 62.5 20.05
M 47 20
L 56 20 60.5 23.75 60.5 28 54.5 28 54.5 26.5 52.5 25 50.5 25 48.5 26.5 48.5 37.5 50.5 39 52.5 39 54.5 37.5 54.5 36 60.5 36 60.5 40.25 56 44 47 44 42.5 40.25 42.5 23.75 47 20
M 40.5 36
L 40.5 40.25 36 44 27 44 22.5 40.25 22.5 23.75 27 20 36 20 40.5 23.75 40.5 28 34.5 28 34.5 26.5 32.5 25 30.5 25 28.5 26.5 28.5 37.5 30.5 39 32.5 39 34.5 37.5 34.5 36 40.5 36
M 2.5 23.75
L 7 20 16 20 20.5 23.75 20.5 44 14.5 44 14.5 38 8.5 38 8.5 44 2.5 44 2.5 23.75
M 8.5 26
L 8.5 32 14.5 32 14.5 26 8.5 26
M 85.5 25
L 85.5 29.5 91.5 29.5 91.5 25 85.5 25 Z"/>

<path fill="#009900" stroke="none" d="
M 7 20
L 2.5 23.75 2.5 44 8.5 44 8.5 38 14.5 38 14.5 44 20.5 44 20.5 23.75 16 20 7 20
M 8.5 32
L 8.5 26 14.5 26 14.5 32 8.5 32
M 40.5 40.25
L 40.5 36 34.5 36 34.5 37.5 32.5 39 30.5 39 28.5 37.5 28.5 26.5 30.5 25 32.5 25 34.5 26.5 34.5 28 40.5 28 40.5 23.75 36 20 27 20 22.5 23.75 22.5 40.25 27 44 36 44 40.5 40.25
M 56 20
L 47 20 42.5 23.75 42.5 40.25 47 44 56 44 60.5 40.25 60.5 36 54.5 36 54.5 37.5 52.5 39 50.5 39 48.5 37.5 48.5 26.5 50.5 25 52.5 25 54.5 26.5 54.5 28 60.5 28 60.5 23.75 56 20
M 77.5 20
L 62.5 20.05 62.5 44 77.5 44 77.5 39 68.5 39 68.5 34.5 74.5 34.5 74.5 29.5 68.5 29.5 68.5 25 77.5 25 77.5 20
M 111.5 26
L 117.5 26 117.5 20 99.5 20 99.5 26 105.5 26 105.5 44 111.5 44 111.5 26
M 97.5 22.5
L 94.5 20 79.5 20.05 79.5 44 85.5 44 85.5 34.5 94.5 34.5 97.5 32 97.5 22.5
M 85.5 29.5
L 85.5 25 91.5 25 91.5 29.5 85.5 29.5 Z"/>
</g>

<path id="Layer0_0_1_STROKES" stroke="#009900" stroke-width="1" stroke-linejoin="round" stroke-linecap="round" fill="none" d="
M 85.5 34.5
L 85.5 44 79.5 44 79.5 20.05 94.5 20 97.5 22.5 97.5 32 94.5 34.5 85.5 34.5 Z
M 85.5 25
L 85.5 29.5 91.5 29.5 91.5 25 85.5 25 Z
M 99.5 20
L 117.5 20 117.5 26 111.5 26 111.5 44 105.5 44 105.5 26 99.5 26 99.5 20 Z
M 0 0
L 120 0 120 64 0 64 0 0 Z
M 77.5 20
L 77.5 25 68.5 25 68.5 29.5 74.5 29.5 74.5 34.5 68.5 34.5 68.5 39 77.5 39 77.5 44 62.5 44 62.5 20.05 77.5 20 Z
M 56 20
L 60.5 23.75 60.5 28 54.5 28 54.5 26.5 52.5 25 50.5 25 48.5 26.5 48.5 37.5 50.5 39 52.5 39 54.5 37.5 54.5 36 60.5 36 60.5 40.25 56 44 47 44 42.5 40.25 42.5 23.75 47 20 56 20 Z
M 36 20
L 40.5 23.75 40.5 28 34.5 28 34.5 26.5 32.5 25 30.5 25 28.5 26.5 28.5 37.5 30.5 39 32.5 39 34.5 37.5 34.5 36 40.5 36 40.5 40.25 36 44 27 44 22.5 40.25 22.5 23.75 27 20 36 20 Z
M 2.5 44
L 8.5 44 8.5 38 14.5 38 14.5 44 20.5 44 20.5 23.75 16 20 7 20 2.5 23.75 2.5 44 Z
M 8.5 32
L 14.5 32 14.5 26 8.5 26 8.5 32 Z"/>
</defs>

<g transform="matrix( 1, 0, 0, 1, 0,0) ">
<use xlink:href="#Layer0_0_FILL"/>

<use xlink:href="#Layer0_0_1_STROKES"/>
</g>
</svg>
