
<svg xmlns="http://www.w3.org/2000/svg" version="1.1" xmlns:xlink="http://www.w3.org/1999/xlink" preserveAspectRatio="none" x="0px" y="0px" width="160px" height="64px" viewBox="0 0 160 64">
<defs>
<g id="Layer0_0_FILL">
<path fill="#00FF00" stroke="none" d="
M 160 64
L 160 0 0 0 0 64 160 64
M 133 20
L 137.5 23.75 137.5 40.25 133 44 119.5 44 119.5 20.05 133 20
M 102.5 20.05
L 117.5 20 117.5 25 108.5 25 108.5 29.5 114.5 29.5 114.5 34.5 108.5 34.5 108.5 39 117.5 39 117.5 44 102.5 44 102.5 20.05
M 85.5 20.05
L 100.5 20 100.5 25 91.5 25 91.5 29.5 97.5 29.5 97.5 34.5 91.5 34.5 91.5 39 100.5 39 100.5 44 85.5 44 85.5 20.05
M 83.5 40
L 83.5 44 79.5 44 71.5 36 71.5 44 65.5 44 65.5 20.05 80.5 20 83.5 22.5 83.5 32 80.5 34.5 78 34.5 83.5 40
M 42.5 23.75
L 47 20 59 20 63.5 23.75 63.5 28 57.5 28 57.5 26.5 55.5 25 50.5 25 48.5 26.5 48.5 37.5 50.5 39 55.5 39 57.5 37.5 57.5 36 54.5 36 54.5 33 63.5 33 63.5 40.25 59 44 47 44 42.5 40.25 42.5 23.75
M 40.5 23.75
L 40.5 44 34.5 44 34.5 38 28.5 38 28.5 44 22.5 44 22.5 23.75 27 20 36 20 40.5 23.75
M 28.5 32
L 34.5 32 34.5 26 28.5 26 28.5 32
M 77.5 25
L 71.5 25 71.5 29.5 77.5 29.5 77.5 25
M 131.5 37.5
L 131.5 26.5 129.5 25 125.5 25 125.5 39 129.5 39 131.5 37.5 Z"/>

<path fill="#009900" stroke="none" d="
M 40.5 44
L 40.5 23.75 36 20 27 20 22.5 23.75 22.5 44 28.5 44 28.5 38 34.5 38 34.5 44 40.5 44
M 34.5 32
L 28.5 32 28.5 26 34.5 26 34.5 32
M 47 20
L 42.5 23.75 42.5 40.25 47 44 59 44 63.5 40.25 63.5 33 54.5 33 54.5 36 57.5 36 57.5 37.5 55.5 39 50.5 39 48.5 37.5 48.5 26.5 50.5 25 55.5 25 57.5 26.5 57.5 28 63.5 28 63.5 23.75 59 20 47 20
M 83.5 44
L 83.5 40 78 34.5 80.5 34.5 83.5 32 83.5 22.5 80.5 20 65.5 20.05 65.5 44 71.5 44 71.5 36 79.5 44 83.5 44
M 71.5 25
L 77.5 25 77.5 29.5 71.5 29.5 71.5 25
M 100.5 20
L 85.5 20.05 85.5 44 100.5 44 100.5 39 91.5 39 91.5 34.5 97.5 34.5 97.5 29.5 91.5 29.5 91.5 25 100.5 25 100.5 20
M 117.5 20
L 102.5 20.05 102.5 44 117.5 44 117.5 39 108.5 39 108.5 34.5 114.5 34.5 114.5 29.5 108.5 29.5 108.5 25 117.5 25 117.5 20
M 137.5 23.75
L 133 20 119.5 20.05 119.5 44 133 44 137.5 40.25 137.5 23.75
M 131.5 26.5
L 131.5 37.5 129.5 39 125.5 39 125.5 25 129.5 25 131.5 26.5 Z"/>
</g>

<path id="Layer0_0_1_STROKES" stroke="#009900" stroke-width="1" stroke-linejoin="round" stroke-linecap="round" fill="none" d="
M 133 20
L 137.5 23.75 137.5 40.25 133 44 119.5 44 119.5 20.05 133 20 Z
M 125.5 25
L 129.5 25 131.5 26.5 131.5 37.5 129.5 39 125.5 39 125.5 25 Z
M 117.5 20
L 117.5 25 108.5 25 108.5 29.5 114.5 29.5 114.5 34.5 108.5 34.5 108.5 39 117.5 39 117.5 44 102.5 44 102.5 20.05 117.5 20 Z
M 100.5 20
L 100.5 25 91.5 25 91.5 29.5 97.5 29.5 97.5 34.5 91.5 34.5 91.5 39 100.5 39 100.5 44 85.5 44 85.5 20.05 100.5 20 Z
M 71.5 44
L 65.5 44 65.5 20.05 80.5 20 83.5 22.5 83.5 32 80.5 34.5 78 34.5 83.5 40 83.5 44 79.5 44 71.5 36 71.5 44 Z
M 0 0
L 160 0 160 64 0 64 0 0 Z
M 59 20
L 63.5 23.75 63.5 28 57.5 28 57.5 26.5 55.5 25 50.5 25 48.5 26.5 48.5 37.5 50.5 39 55.5 39 57.5 37.5 57.5 36 54.5 36 54.5 33 63.5 33 63.5 40.25 59 44 47 44 42.5 40.25 42.5 23.75 47 20 59 20 Z
M 71.5 25
L 71.5 29.5 77.5 29.5 77.5 25 71.5 25 Z
M 22.5 44
L 28.5 44 28.5 38 34.5 38 34.5 44 40.5 44 40.5 23.75 36 20 27 20 22.5 23.75 22.5 44 Z
M 28.5 32
L 34.5 32 34.5 26 28.5 26 28.5 32 Z"/>
</defs>

<g transform="matrix( 1, 0, 0, 1, 0,0) ">
<use xlink:href="#Layer0_0_FILL"/>

<use xlink:href="#Layer0_0_1_STROKES"/>
</g>
</svg>
