
<svg xmlns="http://www.w3.org/2000/svg" version="1.1" xmlns:xlink="http://www.w3.org/1999/xlink" preserveAspectRatio="none" x="0px" y="0px" width="120px" height="64px" viewBox="0 0 120 64">
<defs>
<g id="Layer0_0_FILL">
<path fill="#0066FF" stroke="none" d="
M 120 64
L 120 0 0 0 0 64 120 64
M 87 20
L 92 20 96 27 100 20 105 20 105 25 99 33.6 99 44 93 44 93 33.6 91.9 32.05 91.9 32 91.3 31.15
Q 89.15 28.1 87 25
L 87 20
M 90 39
L 90 44 75 44 75 20 81 20 81 39 90 39
M 70 20
L 73 22.5 73 32 70 34.5 61 34.5 61 44 55 44 55 20.05 70 20
M 50 20
L 53 22.5 53 32 50 34.5 41 34.5 41 44 35 44 35 20.05 50 20
M 28.5 20
L 33 23.75 33 44 27 44 27 38 21 38 21 44 15 44 15 23.75 19.5 20 28.5 20
M 21 26
L 21 32 27 32 27 26 21 26
M 47 29.5
L 47 25 41 25 41 29.5 47 29.5
M 67 25
L 61 25 61 29.5 67 29.5 67 25 Z"/>

<path fill="#000099" stroke="none" d="
M 33 23.75
L 28.5 20 19.5 20 15 23.75 15 44 21 44 21 38 27 38 27 44 33 44 33 23.75
M 21 32
L 21 26 27 26 27 32 21 32
M 53 22.5
L 50 20 35 20.05 35 44 41 44 41 34.5 50 34.5 53 32 53 22.5
M 47 25
L 47 29.5 41 29.5 41 25 47 25
M 73 22.5
L 70 20 55 20.05 55 44 61 44 61 34.5 70 34.5 73 32 73 22.5
M 61 25
L 67 25 67 29.5 61 29.5 61 25
M 90 44
L 90 39 81 39 81 20 75 20 75 44 90 44
M 92 20
L 87 20 87 25
Q 89.15 28.1 91.3 31.15
L 91.9 32 91.9 32.05 93 33.6 93 44 99 44 99 33.6 105 25 105 20 100 20 96 27 92 20 Z"/>
</g>

<path id="Layer0_0_1_STROKES" stroke="#000099" stroke-width="1" stroke-linejoin="round" stroke-linecap="round" fill="none" d="
M 91.9 32.05
L 93 33.6 93 44 99 44 99 33.6 105 25 105 20 100 20 96 27 92 20 87 20 87 25
Q 89.15 28.1 91.3 31.15
L 91.9 32 91.9 32.05 Z
M 75 44
L 75 20 81 20 81 39 90 39 90 44 75 44 Z
M 0 0
L 120 0 120 64 0 64 0 0 Z
M 61 34.5
L 61 44 55 44 55 20.05 70 20 73 22.5 73 32 70 34.5 61 34.5 Z
M 41 34.5
L 41 44 35 44 35 20.05 50 20 53 22.5 53 32 50 34.5 41 34.5 Z
M 41 25
L 41 29.5 47 29.5 47 25 41 25 Z
M 61 25
L 61 29.5 67 29.5 67 25 61 25 Z
M 15 44
L 21 44 21 38 27 38 27 44 33 44 33 23.75 28.5 20 19.5 20 15 23.75 15 44 Z
M 21 32
L 27 32 27 26 21 26 21 32 Z"/>
</defs>

<g transform="matrix( 1, 0, 0, 1, 0,0) ">
<use xlink:href="#Layer0_0_FILL"/>

<use xlink:href="#Layer0_0_1_STROKES"/>
</g>
</svg>
