
<svg xmlns="http://www.w3.org/2000/svg" version="1.1" xmlns:xlink="http://www.w3.org/1999/xlink" preserveAspectRatio="none" x="0px" y="0px" width="160px" height="64px" viewBox="0 0 160 64">
<defs>
<g id="Layer0_0_FILL">
<path fill="#FF0000" stroke="none" d="
M 160 64
L 160 0 0 0 0 64 160 64
M 150 20
L 154.5 23.75 154.5 40.25 150 44 136.5 44 136.5 20.05 150 20
M 134.5 39
L 134.5 44 119.5 44 119.5 20.05 134.5 20 134.5 25 125.5 25 125.5 29.5 131.5 29.5 131.5 34.5 125.5 34.5 125.5 39 134.5 39
M 111.5 20
L 117.5 20 117.5 44 111.5 44 102.5 29 102.5 44 96.5 44 96.5 20 102.5 20 111.5 35 111.5 20
M 84 38
L 84 26 79.5 26 79.5 20 94.5 20 94.5 26 90 26 90 38 94.5 38 94.5 44 79.5 44 79.5 38 84 38
M 62.5 20
L 68.5 20 68.5 39 77.5 39 77.5 44 62.5 44 62.5 20
M 42.5 23.75
L 47 20 56 20 60.5 23.75 60.5 28 54.5 28 54.5 26.5 52.5 25 50.5 25 48.5 26.5 48.5 37.5 50.5 39 52.5 39 54.5 37.5 54.5 36 60.5 36 60.5 40.25 56 44 47 44 42.5 40.25 42.5 23.75
M 40.5 39
L 40.5 44 25.5 44 25.5 20.05 40.5 20 40.5 25 31.5 25 31.5 29.5 37.5 29.5 37.5 34.5 31.5 34.5 31.5 39 40.5 39
M 5.5 20.05
L 19 20 23.5 23.75 23.5 40.25 19 44 5.5 44 5.5 20.05
M 17.5 26.5
L 15.5 25 11.5 25 11.5 39 15.5 39 17.5 37.5 17.5 26.5
M 142.5 39
L 146.5 39 148.5 37.5 148.5 26.5 146.5 25 142.5 25 142.5 39 Z"/>

<path fill="#990000" stroke="none" d="
M 19 20
L 5.5 20.05 5.5 44 19 44 23.5 40.25 23.5 23.75 19 20
M 15.5 25
L 17.5 26.5 17.5 37.5 15.5 39 11.5 39 11.5 25 15.5 25
M 40.5 44
L 40.5 39 31.5 39 31.5 34.5 37.5 34.5 37.5 29.5 31.5 29.5 31.5 25 40.5 25 40.5 20 25.5 20.05 25.5 44 40.5 44
M 47 20
L 42.5 23.75 42.5 40.25 47 44 56 44 60.5 40.25 60.5 36 54.5 36 54.5 37.5 52.5 39 50.5 39 48.5 37.5 48.5 26.5 50.5 25 52.5 25 54.5 26.5 54.5 28 60.5 28 60.5 23.75 56 20 47 20
M 68.5 20
L 62.5 20 62.5 44 77.5 44 77.5 39 68.5 39 68.5 20
M 84 26
L 84 38 79.5 38 79.5 44 94.5 44 94.5 38 90 38 90 26 94.5 26 94.5 20 79.5 20 79.5 26 84 26
M 117.5 20
L 111.5 20 111.5 35 102.5 20 96.5 20 96.5 44 102.5 44 102.5 29 111.5 44 117.5 44 117.5 20
M 134.5 44
L 134.5 39 125.5 39 125.5 34.5 131.5 34.5 131.5 29.5 125.5 29.5 125.5 25 134.5 25 134.5 20 119.5 20.05 119.5 44 134.5 44
M 154.5 23.75
L 150 20 136.5 20.05 136.5 44 150 44 154.5 40.25 154.5 23.75
M 146.5 39
L 142.5 39 142.5 25 146.5 25 148.5 26.5 148.5 37.5 146.5 39 Z"/>
</g>

<path id="Layer0_0_1_STROKES" stroke="#990000" stroke-width="1" stroke-linejoin="round" stroke-linecap="round" fill="none" d="
M 150 20
L 154.5 23.75 154.5 40.25 150 44 136.5 44 136.5 20.05 150 20 Z
M 134.5 20
L 134.5 25 125.5 25 125.5 29.5 131.5 29.5 131.5 34.5 125.5 34.5 125.5 39 134.5 39 134.5 44 119.5 44 119.5 20.05 134.5 20 Z
M 142.5 25
L 146.5 25 148.5 26.5 148.5 37.5 146.5 39 142.5 39 142.5 25 Z
M 96.5 20
L 102.5 20 111.5 35 111.5 20 117.5 20 117.5 44 111.5 44 102.5 29 102.5 44 96.5 44 96.5 20 Z
M 94.5 20
L 94.5 26 90 26 90 38 94.5 38 94.5 44 79.5 44 79.5 38 84 38 84 26 79.5 26 79.5 20 94.5 20 Z
M 0 0
L 160 0 160 64 0 64 0 0 Z
M 62.5 44
L 62.5 20 68.5 20 68.5 39 77.5 39 77.5 44 62.5 44 Z
M 56 20
L 60.5 23.75 60.5 28 54.5 28 54.5 26.5 52.5 25 50.5 25 48.5 26.5 48.5 37.5 50.5 39 52.5 39 54.5 37.5 54.5 36 60.5 36 60.5 40.25 56 44 47 44 42.5 40.25 42.5 23.75 47 20 56 20 Z
M 40.5 20
L 40.5 25 31.5 25 31.5 29.5 37.5 29.5 37.5 34.5 31.5 34.5 31.5 39 40.5 39 40.5 44 25.5 44 25.5 20.05 40.5 20 Z
M 19 20
L 23.5 23.75 23.5 40.25 19 44 5.5 44 5.5 20.05 19 20 Z
M 11.5 25
L 15.5 25 17.5 26.5 17.5 37.5 15.5 39 11.5 39 11.5 25 Z"/>
</defs>

<g transform="matrix( 1, 0, 0, 1, 0,0) ">
<use xlink:href="#Layer0_0_FILL"/>

<use xlink:href="#Layer0_0_1_STROKES"/>
</g>
</svg>
