
<svg xmlns="http://www.w3.org/2000/svg" version="1.1" xmlns:xlink="http://www.w3.org/1999/xlink" preserveAspectRatio="none" x="0px" y="0px" width="120px" height="64px" viewBox="0 0 120 64">
<defs>
<g id="Layer0_0_FILL">
<path fill="#FF0000" stroke="none" d="
M 120 64
L 120 0 0 0 0 64 120 64
M 73 20
L 79 20 79 44 73 44 64 29 64 44 58 44 58 20 64 20 73 35 73 20
M 41 20.05
L 56 20 56 25 47 25 47 29.5 53 29.5 53 34.5 47 34.5 47 39 56 39 56 44 41 44 41 20.05
M 34.5 20
L 39 23.75 39 40.25 34.5 44 21 44 21 20.05 34.5 20
M 94 20
L 99 20 99 25 93 33.6 93 44 87 44 87 33.6 85.9 32.05 85.45 31.35 85.3 31.15
Q 83.15 28.1 81 25
L 81 20 86 20 90 27 94 20
M 33 37.5
L 33 26.5 31 25 27 25 27 39 31 39 33 37.5 Z"/>

<path fill="#990000" stroke="none" d="
M 99 20
L 94 20 90 27 86 20 81 20 81 25
Q 83.15 28.1 85.3 31.15
L 85.45 31.35 85.9 32 85.9 32.05 87 33.6 87 44 93 44 93 33.6 99 25 99 20
M 39 23.75
L 34.5 20 21 20.05 21 44 34.5 44 39 40.25 39 23.75
M 33 26.5
L 33 37.5 31 39 27 39 27 25 31 25 33 26.5
M 56 20
L 41 20.05 41 44 56 44 56 39 47 39 47 34.5 53 34.5 53 29.5 47 29.5 47 25 56 25 56 20
M 79 20
L 73 20 73 35 64 20 58 20 58 44 64 44 64 29 73 44 79 44 79 20 Z"/>
</g>

<path id="Layer0_0_1_STROKES" stroke="#990000" stroke-width="1" stroke-linejoin="round" stroke-linecap="round" fill="none" d="
M 85.9 32.05
L 87 33.6 87 44 93 44 93 33.6 99 25 99 20 94 20 90 27 86 20 81 20 81 25
Q 83.15 28.1 85.3 31.15
L 85.45 31.35 85.9 32 85.9 32.05 85.45 31.35
M 0 0
L 120 0 120 64 0 64 0 0 Z
M 58 20
L 64 20 73 35 73 20 79 20 79 44 73 44 64 29 64 44 58 44 58 20 Z
M 56 20
L 56 25 47 25 47 29.5 53 29.5 53 34.5 47 34.5 47 39 56 39 56 44 41 44 41 20.05 56 20 Z
M 34.5 20
L 39 23.75 39 40.25 34.5 44 21 44 21 20.05 34.5 20 Z
M 27 25
L 31 25 33 26.5 33 37.5 31 39 27 39 27 25 Z"/>
</defs>

<g transform="matrix( 1, 0, 0, 1, 0,0) ">
<use xlink:href="#Layer0_0_FILL"/>

<use xlink:href="#Layer0_0_1_STROKES"/>
</g>
</svg>
