
<svg xmlns="http://www.w3.org/2000/svg" version="1.1" xmlns:xlink="http://www.w3.org/1999/xlink" preserveAspectRatio="none" x="0px" y="0px" width="120px" height="64px" viewBox="0 0 120 64">
<defs>
<g id="Layer0_0_FILL">
<path fill="#FFFF66" stroke="none" d="
M 120 64
L 120 0 0 0 0 64 120 64
M 96 26
L 90 26 90 44 84 44 84 26 78 26 78 20 96 20 96 26
M 61 20
L 76 20 76 26 71.5 26 71.5 38 76 38 76 44 61 44 61 38 65.5 38 65.5 26 61 26 61 20
M 54.5 20
L 59 23.75 59 40.25 54.5 44 41 44 41 20.05 54.5 20
M 24 20.05
L 39 20 39 25 30 25 30 29.5 36 29.5 36 34.5 30 34.5 30 39 39 39 39 44 24 44 24 20.05
M 51 39
L 53 37.5 53 26.5 51 25 47 25 47 39 51 39 Z"/>

<path fill="#FFCC00" stroke="none" d="
M 39 20
L 24 20.05 24 44 39 44 39 39 30 39 30 34.5 36 34.5 36 29.5 30 29.5 30 25 39 25 39 20
M 59 23.75
L 54.5 20 41 20.05 41 44 54.5 44 59 40.25 59 23.75
M 53 37.5
L 51 39 47 39 47 25 51 25 53 26.5 53 37.5
M 76 20
L 61 20 61 26 65.5 26 65.5 38 61 38 61 44 76 44 76 38 71.5 38 71.5 26 76 26 76 20
M 90 26
L 96 26 96 20 78 20 78 26 84 26 84 44 90 44 90 26 Z"/>
</g>

<path id="Layer0_0_1_STROKES" stroke="#FFCC00" stroke-width="1" stroke-linejoin="round" stroke-linecap="round" fill="none" d="
M 78 20
L 96 20 96 26 90 26 90 44 84 44 84 26 78 26 78 20 Z
M 0 0
L 120 0 120 64 0 64 0 0 Z
M 76 20
L 76 26 71.5 26 71.5 38 76 38 76 44 61 44 61 38 65.5 38 65.5 26 61 26 61 20 76 20 Z
M 54.5 20
L 59 23.75 59 40.25 54.5 44 41 44 41 20.05 54.5 20 Z
M 47 25
L 51 25 53 26.5 53 37.5 51 39 47 39 47 25 Z
M 39 20
L 39 25 30 25 30 29.5 36 29.5 36 34.5 30 34.5 30 39 39 39 39 44 24 44 24 20.05 39 20 Z"/>
</defs>

<g transform="matrix( 1, 0, 0, 1, 0,0) ">
<use xlink:href="#Layer0_0_FILL"/>

<use xlink:href="#Layer0_0_1_STROKES"/>
</g>
</svg>
