
<svg xmlns="http://www.w3.org/2000/svg" version="1.1" xmlns:xlink="http://www.w3.org/1999/xlink" preserveAspectRatio="none" x="0px" y="0px" width="196px" height="64px" viewBox="0 0 196 64">
<defs>
<g id="Layer0_0_FILL">
<path fill="#CCCCCC" stroke="none" d="
M 196 64
L 196 0 0 0 0 64 196 64
M 175.5 38
L 175.5 44 160.5 44 160.5 38 165 38 165 26 160.5 26 160.5 20 175.5 20 175.5 26 171 26 171 38 175.5 38
M 192.5 39
L 192.5 44 177.5 44 177.5 20 183.5 20 183.5 39 192.5 39
M 145 20
L 154 20 158.5 23.75 158.5 44 152.5 44 152.5 38 146.5 38 146.5 44 140.5 44 140.5 23.75 145 20
M 132.5 20
L 138.5 20 138.5 44 132.5 44 132.5 28 128 34 123.5 28 123.5 44 117.5 44 117.5 20 123.5 20 128 26 132.5 20
M 112.5 29.5
L 112.5 34.5 106.5 34.5 106.5 39 115.5 39 115.5 44 100.5 44 100.5 20.05 115.5 20 115.5 25 106.5 25 106.5 29.5 112.5 29.5
M 81.5 23.75
L 81.5 40.25 77 44 63.5 44 63.5 20.05 77 20 81.5 23.75
M 40.5 20
L 46.5 20 55.5 35 55.5 20 61.5 20 61.5 44 55.5 44 46.5 29 46.5 44 40.5 44 40.5 20
M 23.5 20.05
L 38.5 20 38.5 25 29.5 25 29.5 29.5 35.5 29.5 35.5 34.5 29.5 34.5 29.5 39 38.5 39 38.5 44 23.5 44 23.5 20.05
M 8 20.05
L 8 20 8.6 20 17 20 21.5 23.75 21.5 27.5 15.5 27.5 15.5 26.5 13.5 25 11.5 25 9.5 26.5 9.5 28 11.5 29.5 15.5 29.5 21.5 34.5 21.5 40.25 17 44 8 44 3.5 40.25 3.5 36.5 9.5 36.5 9.5 37.5 11.5 39 13.5 39 15.5 37.5 15.5 36 13.5 34.5 9.5 34.5 3.5 29.5 3.5 23.75 8 20.05
M 69.5 39
L 73.5 39 75.5 37.5 75.5 26.5 73.5 25 69.5 25 69.5 39
M 152.5 32
L 152.5 26 146.5 26 146.5 32 152.5 32 Z"/>

<path fill="#CC0000" stroke="none" d="
M 8.6 20
L 8 20.05 3.5 23.75 3.5 29.5 9.5 34.5 13.5 34.5 15.5 36 15.5 37.5 13.5 39 11.5 39 9.5 37.5 9.5 36.5 3.5 36.5 3.5 40.25 8 44 17 44 21.5 40.25 21.5 34.5 15.5 29.5 11.5 29.5 9.5 28 9.5 26.5 11.5 25 13.5 25 15.5 26.5 15.5 27.5 21.5 27.5 21.5 23.75 17 20 8.6 20
M 38.5 20
L 23.5 20.05 23.5 44 38.5 44 38.5 39 29.5 39 29.5 34.5 35.5 34.5 35.5 29.5 29.5 29.5 29.5 25 38.5 25 38.5 20
M 46.5 20
L 40.5 20 40.5 44 46.5 44 46.5 29 55.5 44 61.5 44 61.5 20 55.5 20 55.5 35 46.5 20
M 81.5 40.25
L 81.5 23.75 77 20 63.5 20.05 63.5 44 77 44 81.5 40.25
M 73.5 39
L 69.5 39 69.5 25 73.5 25 75.5 26.5 75.5 37.5 73.5 39
M 112.5 34.5
L 112.5 29.5 106.5 29.5 106.5 25 115.5 25 115.5 20 100.5 20.05 100.5 44 115.5 44 115.5 39 106.5 39 106.5 34.5 112.5 34.5
M 138.5 20
L 132.5 20 128 26 123.5 20 117.5 20 117.5 44 123.5 44 123.5 28 128 34 132.5 28 132.5 44 138.5 44 138.5 20
M 154 20
L 145 20 140.5 23.75 140.5 44 146.5 44 146.5 38 152.5 38 152.5 44 158.5 44 158.5 23.75 154 20
M 152.5 26
L 152.5 32 146.5 32 146.5 26 152.5 26
M 192.5 44
L 192.5 39 183.5 39 183.5 20 177.5 20 177.5 44 192.5 44
M 175.5 44
L 175.5 38 171 38 171 26 175.5 26 175.5 20 160.5 20 160.5 26 165 26 165 38 160.5 38 160.5 44 175.5 44 Z"/>
</g>

<path id="Layer0_0_1_STROKES" stroke="#990000" stroke-width="1" stroke-linejoin="round" stroke-linecap="round" fill="none" d="
M 175.5 20
L 175.5 26 171 26 171 38 175.5 38 175.5 44 160.5 44 160.5 38 165 38 165 26 160.5 26 160.5 20 175.5 20 Z
M 177.5 44
L 177.5 20 183.5 20 183.5 39 192.5 39 192.5 44 177.5 44 Z
M 0 0
L 196 0 196 64 0 64 0 0 Z
M 140.5 44
L 146.5 44 146.5 38 152.5 38 152.5 44 158.5 44 158.5 23.75 154 20 145 20 140.5 23.75 140.5 44 Z
M 117.5 20
L 123.5 20 128 26 132.5 20 138.5 20 138.5 44 132.5 44 132.5 28 128 34 123.5 28 123.5 44 117.5 44 117.5 20 Z
M 146.5 32
L 152.5 32 152.5 26 146.5 26 146.5 32 Z
M 115.5 20
L 115.5 25 106.5 25 106.5 29.5 112.5 29.5 112.5 34.5 106.5 34.5 106.5 39 115.5 39 115.5 44 100.5 44 100.5 20.05 115.5 20 Z
M 77 20
L 81.5 23.75 81.5 40.25 77 44 63.5 44 63.5 20.05 77 20 Z
M 40.5 20
L 46.5 20 55.5 35 55.5 20 61.5 20 61.5 44 55.5 44 46.5 29 46.5 44 40.5 44 40.5 20 Z
M 69.5 25
L 73.5 25 75.5 26.5 75.5 37.5 73.5 39 69.5 39 69.5 25 Z
M 38.5 20
L 38.5 25 29.5 25 29.5 29.5 35.5 29.5 35.5 34.5 29.5 34.5 29.5 39 38.5 39 38.5 44 23.5 44 23.5 20.05 38.5 20 Z
M 8 20.05
L 8 20 8.6 20 17 20 21.5 23.75 21.5 27.5 15.5 27.5 15.5 26.5 13.5 25 11.5 25 9.5 26.5 9.5 28 11.5 29.5 15.5 29.5 21.5 34.5 21.5 40.25 17 44 8 44 3.5 40.25 3.5 36.5 9.5 36.5 9.5 37.5 11.5 39 13.5 39 15.5 37.5 15.5 36 13.5 34.5 9.5 34.5 3.5 29.5 3.5 23.75 8 20.05 8.6 20"/>
</defs>

<g transform="matrix( 1, 0, 0, 1, 0,0) ">
<use xlink:href="#Layer0_0_FILL"/>

<use xlink:href="#Layer0_0_1_STROKES"/>
</g>
</svg>
