
<svg xmlns="http://www.w3.org/2000/svg" version="1.1" xmlns:xlink="http://www.w3.org/1999/xlink" preserveAspectRatio="none" x="0px" y="0px" width="106px" height="32px" viewBox="0 0 106 32">
<defs>
<g id="Layer0_0_FILL">
<path fill="#FFFFFF" stroke="none" d="
M 106 32
L 106 0 0 0 0 32 106 32
M 105 1
L 105 31 1 31 1 1 105 1
M 105 31
L 105 1 1 1 1 31 105 31
M 92.75 10
L 95.75 10 95.75 19.5 100.25 19.5 100.25 22 92.75 22 92.75 10
M 81 10
L 83.25 11.9 83.25 22 80.25 22 80.25 19 77.25 19 77.25 22 74.25 22 74.25 11.9 76.5 10 81 10
M 84.25 22
L 84.25 19 86.5 19 86.5 13 84.25 13 84.25 10 91.75 10 91.75 13 89.5 13 89.5 19 91.75 19 91.75 22 84.25 22
M 62.75 10
L 65.75 10 68 13 70.25 10 73.25 10 73.25 22 70.25 22 70.25 14 68 17 65.75 14 65.75 22 62.75 22 62.75 10
M 61.75 19.5
L 61.75 22 54.25 22 54.25 10.05 61.75 10 61.75 12.5 57.25 12.5 57.25 14.75 60.25 14.75 60.25 17.25 57.25 17.25 57.25 19.5 61.75 19.5
M 42.5 10
L 44.75 11.9 44.75 20.15 42.5 22 35.75 22 35.75 10.05 42.5 10
M 31.75 10
L 34.75 10 34.75 22 31.75 22 27.25 14.5 27.25 22 24.25 22 24.25 10 27.25 10 31.75 17.5 31.75 10
M 23.25 19.5
L 23.25 22 15.75 22 15.75 10.05 23.25 10 23.25 12.5 18.75 12.5 18.75 14.75 21.75 14.75 21.75 17.25 18.75 17.25 18.75 19.5 23.25 19.5
M 12.5 10
L 14.75 11.9 14.75 13.75 11.75 13.75 11.75 13.25 10.75 12.5 9.75 12.5 8.75 13.25 8.75 14 9.75 14.75 11.75 14.75 14.75 17.25 14.75 20.15 12.5 22 8 22 5.75 20.15 5.75 18.25 8.75 18.25 8.75 18.75 9.75 19.5 10.75 19.5 11.75 18.75 11.75 18 10.75 17.25 8.75 17.25 5.75 14.75 5.75 11.9 8 10.05 8.3 10 12.5 10
M 41.75 13.25
L 40.75 12.5 38.75 12.5 38.75 19.5 40.75 19.5 41.75 18.75 41.75 13.25
M 77.25 13
L 77.25 16 80.25 16 80.25 13 77.25 13 Z"/>

<path fill="#FF0000" stroke="none" d="
M 14.75 11.9
L 12.5 10 8.3 10 8 10.05 5.75 11.9 5.75 14.75 8.75 17.25 10.75 17.25 11.75 18 11.75 18.75 10.75 19.5 9.75 19.5 8.75 18.75 8.75 18.25 5.75 18.25 5.75 20.15 8 22 12.5 22 14.75 20.15 14.75 17.25 11.75 14.75 9.75 14.75 8.75 14 8.75 13.25 9.75 12.5 10.75 12.5 11.75 13.25 11.75 13.75 14.75 13.75 14.75 11.9
M 23.25 22
L 23.25 19.5 18.75 19.5 18.75 17.25 21.75 17.25 21.75 14.75 18.75 14.75 18.75 12.5 23.25 12.5 23.25 10 15.75 10.05 15.75 22 23.25 22
M 34.75 10
L 31.75 10 31.75 17.5 27.25 10 24.25 10 24.25 22 27.25 22 27.25 14.5 31.75 22 34.75 22 34.75 10
M 44.75 11.9
L 42.5 10 35.75 10.05 35.75 22 42.5 22 44.75 20.15 44.75 11.9
M 40.75 12.5
L 41.75 13.25 41.75 18.75 40.75 19.5 38.75 19.5 38.75 12.5 40.75 12.5
M 61.75 22
L 61.75 19.5 57.25 19.5 57.25 17.25 60.25 17.25 60.25 14.75 57.25 14.75 57.25 12.5 61.75 12.5 61.75 10 54.25 10.05 54.25 22 61.75 22
M 65.75 10
L 62.75 10 62.75 22 65.75 22 65.75 14 68 17 70.25 14 70.25 22 73.25 22 73.25 10 70.25 10 68 13 65.75 10
M 84.25 19
L 84.25 22 91.75 22 91.75 19 89.5 19 89.5 13 91.75 13 91.75 10 84.25 10 84.25 13 86.5 13 86.5 19 84.25 19
M 83.25 11.9
L 81 10 76.5 10 74.25 11.9 74.25 22 77.25 22 77.25 19 80.25 19 80.25 22 83.25 22 83.25 11.9
M 77.25 16
L 77.25 13 80.25 13 80.25 16 77.25 16
M 95.75 10
L 92.75 10 92.75 22 100.25 22 100.25 19.5 95.75 19.5 95.75 10 Z"/>
</g>

<path id="Layer0_0_1_STROKES" stroke="#CC0000" stroke-width="1" stroke-linejoin="round" stroke-linecap="round" fill="none" d="
M 0 0
L 106 0 106 32 0 32 0 0 Z"/>

<path id="Layer0_0_2_STROKES" stroke="#FF0000" stroke-width="1" stroke-linejoin="round" stroke-linecap="round" fill="none" d="
M 1 1
L 105 1 105 31 1 31 1 1 Z"/>
</defs>

<g transform="matrix( 1, 0, 0, 1, 0,0) ">
<use xlink:href="#Layer0_0_FILL"/>

<use xlink:href="#Layer0_0_1_STROKES"/>

<use xlink:href="#Layer0_0_2_STROKES"/>
</g>
</svg>
